<svg width="24" height="24" viewBox="0 0 24 24" fill="none" xmlns="http://www.w3.org/2000/svg">
<path d="M11.1158 0H12.8842C13.2973 0.0631579 13.7116 0.120632 14.1234 0.189474C18.7295 0.947368 22.6629 4.66737 23.6754 9.22926C23.8137 9.85263 23.8933 10.4842 24 11.1158V12.8842C23.9368 13.2979 23.88 13.7122 23.8105 14.1246C23.0337 18.7585 19.3358 22.6592 14.7385 23.6804C14.1272 23.8162 13.5025 23.8945 12.8836 24H11.1158C10.7027 23.9368 10.2884 23.88 9.87663 23.8105C5.24211 23.0343 1.34084 19.3371 0.320211 14.7404C0.183789 14.1284 0.105474 13.5032 0 12.8842V11.1158C0.0631579 10.7128 0.116842 10.3086 0.185053 9.90695C0.980211 5.21179 4.62758 1.36421 9.29179 0.315789C9.89242 0.178737 10.5076 0.102947 11.1158 0ZM17.2636 4.43621C16.6737 4.46147 16.3794 4.67684 15.2425 5.88884C14.0709 5.23705 11.3078 5.24463 10.1899 5.90779C10.0964 5.78147 10.0067 5.65516 9.90632 5.53326C9.51221 5.05705 9.06758 4.64905 8.45368 4.45958C8.26421 4.40147 8.17137 4.428 8.10695 4.63137C7.88653 5.32611 7.84232 6.01389 8.08168 6.70547C8.14105 6.87537 8.10947 6.97326 8.00968 7.12484C7.77095 7.488 7.48105 7.86568 7.39958 8.27495C7.24561 9.03613 7.17089 9.81121 7.17663 10.5878C7.19874 12.3688 8.124 13.6067 9.80337 14.2011C10.2354 14.3539 10.6876 14.4417 11.0785 14.5446C10.9629 14.9331 10.8038 15.3246 10.74 15.732C10.6958 16.008 10.5771 16.104 10.3371 16.1564C9.22105 16.3996 8.2661 15.9973 7.66926 15.0133C7.42863 14.6154 7.13053 14.2844 6.68716 14.1164C6.35518 13.9809 5.98496 13.9721 5.64695 14.0918C5.77326 14.2232 5.85789 14.3084 5.94253 14.3912C6.11368 14.5592 6.32147 14.7025 6.45158 14.8964C6.71977 15.2856 6.96401 15.6908 7.18295 16.1097C7.57326 16.8676 8.15242 17.3981 8.98674 17.556C9.53242 17.6596 10.104 17.6312 10.7002 17.6634V19.5632H14.7543V19.2044C14.7543 18.3101 14.7429 17.4152 14.7543 16.5208C14.7644 15.8261 14.6703 15.1598 14.2926 14.5453C14.6255 14.472 14.9469 14.4189 15.2571 14.3299C16.7034 13.9074 17.8156 13.0838 18.1383 11.5465C18.2949 10.7994 18.2571 9.99916 18.2211 9.22674C18.1832 8.42147 17.9912 7.64463 17.3798 7.03832C17.3211 6.98084 17.3368 6.80779 17.3697 6.70484C17.6248 5.93053 17.5579 5.17895 17.2636 4.43621Z" fill="#7F7F7F"/>
</svg>
