<?xml version="1.0" encoding="UTF-8"?>
<svg xmlns="http://www.w3.org/2000/svg" xmlns:xlink="http://www.w3.org/1999/xlink" width="100px" height="37px" viewBox="0 0 99 37" version="1.1">
<defs>
<clipPath id="clip1">
  <path d="M 64.472656 2 L 85.859375 2 L 85.859375 22.816406 L 64.472656 22.816406 Z M 64.472656 2 "/>
</clipPath>
<clipPath id="clip2">
  <path d="M 84.039062 5.398438 C 80.980469 1.28125 74.5 1.003906 69.5625 4.777344 C 64.625 8.550781 63.105469 14.945312 66.164062 19.066406 C 69.222656 23.183594 75.703125 23.460938 80.640625 19.6875 C 85.578125 15.914062 87.097656 9.515625 84.039062 5.398438 Z M 84.039062 5.398438 "/>
</clipPath>
<clipPath id="clip3">
  <path d="M 53.574219 10.191406 L 79.082031 -9.3125 L 96.734375 14.449219 L 71.226562 33.953125 Z M 53.574219 10.191406 "/>
</clipPath>
<clipPath id="clip4">
  <path d="M 84.039062 5.398438 C 80.980469 1.28125 74.5 1.003906 69.5625 4.777344 C 64.625 8.550781 63.105469 14.945312 66.164062 19.066406 C 69.222656 23.183594 75.703125 23.460938 80.640625 19.6875 C 85.578125 15.914062 87.097656 9.515625 84.039062 5.398438 Z M 84.039062 5.398438 "/>
</clipPath>
<clipPath id="clip5">
  <path d="M 60.675781 11.777344 L 78.539062 -1.878906 L 89.628906 13.046875 L 71.765625 26.703125 Z M 60.675781 11.777344 "/>
</clipPath>
<clipPath id="clip6">
  <path d="M 64.472656 2 L 85.859375 2 L 85.859375 22.816406 L 64.472656 22.816406 Z M 64.472656 2 "/>
</clipPath>
<clipPath id="clip7">
  <path d="M 84.039062 5.398438 C 80.980469 1.28125 74.5 1.003906 69.5625 4.777344 C 64.625 8.550781 63.105469 14.945312 66.164062 19.066406 C 69.222656 23.183594 75.703125 23.460938 80.640625 19.6875 C 85.578125 15.914062 87.097656 9.515625 84.039062 5.398438 Z M 84.039062 5.398438 "/>
</clipPath>
<clipPath id="clip8">
  <path d="M 53.574219 10.191406 L 79.082031 -9.3125 L 96.734375 14.449219 L 71.226562 33.953125 Z M 53.574219 10.191406 "/>
</clipPath>
<clipPath id="clip9">
  <path d="M 84.039062 5.398438 C 80.980469 1.28125 74.5 1.003906 69.5625 4.777344 C 64.625 8.550781 63.105469 14.945312 66.164062 19.066406 C 69.222656 23.183594 75.703125 23.460938 80.640625 19.6875 C 85.578125 15.914062 87.097656 9.515625 84.039062 5.398438 Z M 84.039062 5.398438 "/>
</clipPath>
<clipPath id="clip10">
  <path d="M 63.222656 20.738281 L 69.386719 -1.070312 L 87.097656 4.082031 L 80.933594 25.894531 Z M 63.222656 20.738281 "/>
</clipPath>
<clipPath id="clip11">
  <path d="M 64.472656 2 L 85.859375 2 L 85.859375 22.816406 L 64.472656 22.816406 Z M 64.472656 2 "/>
</clipPath>
<clipPath id="clip12">
  <path d="M 84.039062 5.398438 C 80.980469 1.28125 74.5 1.003906 69.5625 4.777344 C 64.625 8.550781 63.105469 14.945312 66.164062 19.066406 C 69.222656 23.183594 75.703125 23.460938 80.640625 19.6875 C 85.578125 15.914062 87.097656 9.515625 84.039062 5.398438 Z M 84.039062 5.398438 "/>
</clipPath>
<clipPath id="clip13">
  <path d="M 53.574219 10.191406 L 79.082031 -9.3125 L 96.734375 14.449219 L 71.226562 33.953125 Z M 53.574219 10.191406 "/>
</clipPath>
<clipPath id="clip14">
  <path d="M 84.039062 5.398438 C 80.980469 1.28125 74.5 1.003906 69.5625 4.777344 C 64.625 8.550781 63.105469 14.945312 66.164062 19.066406 C 69.222656 23.183594 75.703125 23.460938 80.640625 19.6875 C 85.578125 15.914062 87.097656 9.515625 84.039062 5.398438 Z M 84.039062 5.398438 "/>
</clipPath>
<clipPath id="clip15">
  <path d="M 60.675781 11.777344 L 78.539062 -1.878906 L 89.628906 13.046875 L 71.765625 26.703125 Z M 60.675781 11.777344 "/>
</clipPath>
<clipPath id="clip16">
  <path d="M 64.472656 2 L 85.859375 2 L 85.859375 22.816406 L 64.472656 22.816406 Z M 64.472656 2 "/>
</clipPath>
<clipPath id="clip17">
  <path d="M 84.039062 5.398438 C 80.980469 1.28125 74.5 1.003906 69.5625 4.777344 C 64.625 8.550781 63.105469 14.945312 66.164062 19.066406 C 69.222656 23.183594 75.703125 23.460938 80.640625 19.6875 C 85.578125 15.914062 87.097656 9.515625 84.039062 5.398438 Z M 84.039062 5.398438 "/>
</clipPath>
<clipPath id="clip18">
  <path d="M 53.574219 10.191406 L 79.082031 -9.3125 L 96.734375 14.449219 L 71.226562 33.953125 Z M 53.574219 10.191406 "/>
</clipPath>
<clipPath id="clip19">
  <path d="M 84.039062 5.398438 C 80.980469 1.28125 74.5 1.003906 69.5625 4.777344 C 64.625 8.550781 63.105469 14.945312 66.164062 19.066406 C 69.222656 23.183594 75.703125 23.460938 80.640625 19.6875 C 85.578125 15.914062 87.097656 9.515625 84.039062 5.398438 Z M 84.039062 5.398438 "/>
</clipPath>
<clipPath id="clip20">
  <path d="M 63.222656 20.738281 L 69.386719 -1.070312 L 87.097656 4.082031 L 80.933594 25.894531 Z M 63.222656 20.738281 "/>
</clipPath>
<clipPath id="clip21">
  <path d="M 64.472656 2 L 85.859375 2 L 85.859375 22.816406 L 64.472656 22.816406 Z M 64.472656 2 "/>
</clipPath>
<clipPath id="clip22">
  <path d="M 84.039062 5.398438 C 80.980469 1.28125 74.5 1.003906 69.5625 4.777344 C 64.625 8.550781 63.105469 14.945312 66.164062 19.066406 C 69.222656 23.183594 75.703125 23.460938 80.640625 19.6875 C 85.578125 15.914062 87.097656 9.515625 84.039062 5.398438 Z M 84.039062 5.398438 "/>
</clipPath>
<clipPath id="clip23">
  <path d="M 53.574219 10.191406 L 79.082031 -9.3125 L 96.734375 14.449219 L 71.226562 33.953125 Z M 53.574219 10.191406 "/>
</clipPath>
<clipPath id="clip24">
  <path d="M 84.039062 5.398438 C 80.980469 1.28125 74.5 1.003906 69.5625 4.777344 C 64.625 8.550781 63.105469 14.945312 66.164062 19.066406 C 69.222656 23.183594 75.703125 23.460938 80.640625 19.6875 C 85.578125 15.914062 87.097656 9.515625 84.039062 5.398438 Z M 84.039062 5.398438 "/>
</clipPath>
<clipPath id="clip25">
  <path d="M 64.472656 2 L 85.859375 2 L 85.859375 22.816406 L 64.472656 22.816406 Z M 64.472656 2 "/>
</clipPath>
<clipPath id="clip26">
  <path d="M 84.039062 5.398438 C 80.980469 1.28125 74.5 1.003906 69.5625 4.777344 C 64.625 8.550781 63.105469 14.945312 66.164062 19.066406 C 69.222656 23.183594 75.703125 23.460938 80.640625 19.6875 C 85.578125 15.914062 87.097656 9.515625 84.039062 5.398438 Z M 84.039062 5.398438 "/>
</clipPath>
<clipPath id="clip27">
  <path d="M 53.574219 10.191406 L 79.082031 -9.3125 L 96.734375 14.449219 L 71.226562 33.953125 Z M 53.574219 10.191406 "/>
</clipPath>
<clipPath id="clip28">
  <path d="M 69.359375 6.167969 L 81.582031 6.167969 L 81.582031 18.5 L 69.359375 18.5 Z M 69.359375 6.167969 "/>
</clipPath>
<clipPath id="clip29">
  <path d="M 84.039062 5.398438 C 80.980469 1.28125 74.5 1.003906 69.5625 4.777344 C 64.625 8.550781 63.105469 14.945312 66.164062 19.066406 C 69.222656 23.183594 75.703125 23.460938 80.640625 19.6875 C 85.578125 15.914062 87.097656 9.515625 84.039062 5.398438 Z M 84.039062 5.398438 "/>
</clipPath>
<clipPath id="clip30">
  <path d="M 53.574219 10.191406 L 79.082031 -9.3125 L 96.734375 14.449219 L 71.226562 33.953125 Z M 53.574219 10.191406 "/>
</clipPath>
</defs>
<g id="surface1">
<path style=" stroke:none;fill-rule:nonzero;fill:rgb(0%,0%,0%);fill-opacity:1;" d="M 51.097656 12.257812 L 55.769531 11.949219 C 55.878906 12.722656 56.074219 13.300781 56.394531 13.714844 C 56.90625 14.363281 57.617188 14.6875 58.5625 14.6875 C 59.253906 14.6875 59.804688 14.527344 60.175781 14.183594 C 60.535156 13.914062 60.746094 13.480469 60.746094 13.03125 C 60.746094 12.597656 60.550781 12.183594 60.214844 11.910156 C 59.859375 11.589844 59.023438 11.265625 57.707031 10.976562 C 55.558594 10.488281 54.011719 9.839844 53.105469 9.011719 C 52.199219 8.234375 51.683594 7.101562 51.71875 5.894531 C 51.71875 5.0625 51.96875 4.234375 52.429688 3.550781 C 52.964844 2.773438 53.691406 2.164062 54.5625 1.820312 C 55.503906 1.40625 56.820312 1.191406 58.472656 1.191406 C 60.496094 1.191406 62.042969 1.566406 63.109375 2.34375 C 64.175781 3.101562 64.8125 4.328125 65.007812 6 L 60.390625 6.273438 C 60.265625 5.550781 60.019531 5.027344 59.609375 4.683594 C 59.199219 4.34375 58.667969 4.183594 57.972656 4.183594 C 57.40625 4.183594 56.980469 4.308594 56.695312 4.539062 C 56.425781 4.757812 56.25 5.082031 56.269531 5.441406 C 56.269531 5.714844 56.410156 5.964844 56.625 6.128906 C 56.855469 6.34375 57.40625 6.542969 58.273438 6.722656 C 60.425781 7.191406 61.953125 7.660156 62.894531 8.148438 C 63.835938 8.632812 64.511719 9.226562 64.921875 9.929688 C 65.347656 10.652344 65.5625 11.480469 65.542969 12.328125 C 65.542969 13.335938 65.257812 14.34375 64.691406 15.191406 C 64.105469 16.078125 63.285156 16.761719 62.324219 17.175781 C 61.3125 17.625 60.035156 17.859375 58.507812 17.859375 C 55.808594 17.859375 53.941406 17.335938 52.890625 16.273438 C 51.84375 15.210938 51.222656 13.878906 51.097656 12.257812 Z M 1.511719 17.589844 L 1.511719 1.480469 L 9.703125 1.480469 C 11.214844 1.480469 12.386719 1.605469 13.1875 1.875 C 13.96875 2.128906 14.660156 2.648438 15.121094 3.351562 C 15.636719 4.125 15.886719 5.027344 15.871094 5.964844 C 15.921875 7.550781 15.121094 9.066406 13.753906 9.859375 C 13.222656 10.164062 12.636719 10.378906 12.03125 10.488281 C 12.476562 10.617188 12.917969 10.832031 13.3125 11.082031 C 13.613281 11.335938 13.863281 11.625 14.09375 11.929688 C 14.359375 12.238281 14.589844 12.578125 14.785156 12.941406 L 17.167969 17.609375 L 11.585938 17.609375 L 8.957031 12.652344 C 8.621094 12.019531 8.335938 11.605469 8.070312 11.410156 C 7.714844 11.15625 7.289062 11.03125 6.863281 11.03125 L 6.4375 11.03125 L 6.4375 17.574219 L 1.511719 17.574219 Z M 6.4375 8.003906 L 8.515625 8.003906 C 8.957031 7.964844 9.382812 7.894531 9.8125 7.785156 C 10.132812 7.730469 10.414062 7.550781 10.609375 7.28125 C 11.089844 6.632812 11.019531 5.714844 10.433594 5.15625 C 10.113281 4.886719 9.492188 4.742188 8.601562 4.742188 L 6.4375 4.742188 Z M 0.394531 31.394531 L 5.066406 31.089844 C 5.175781 31.863281 5.367188 32.441406 5.6875 32.855469 C 6.1875 33.503906 6.914062 33.847656 7.855469 33.847656 C 8.550781 33.847656 9.101562 33.683594 9.472656 33.339844 C 9.828125 33.054688 10.042969 32.636719 10.042969 32.1875 C 10.042969 31.757812 9.847656 31.339844 9.507812 31.070312 C 9.15625 30.746094 8.320312 30.421875 6.988281 30.132812 C 4.835938 29.644531 3.292969 28.996094 2.386719 28.167969 C 1.480469 27.394531 0.964844 26.257812 1 25.050781 C 1 24.222656 1.25 23.390625 1.710938 22.707031 C 2.242188 21.933594 2.972656 21.320312 3.839844 20.980469 C 4.785156 20.5625 6.097656 20.347656 7.75 20.347656 C 9.777344 20.347656 11.324219 20.726562 12.386719 21.5 C 13.453125 22.273438 14.074219 23.484375 14.269531 25.160156 L 9.652344 25.429688 C 9.527344 24.707031 9.277344 24.183594 8.871094 23.84375 C 8.480469 23.5 7.925781 23.339844 7.234375 23.355469 C 6.667969 23.355469 6.238281 23.484375 5.957031 23.734375 C 5.671875 23.953125 5.511719 24.277344 5.527344 24.636719 C 5.527344 24.90625 5.671875 25.160156 5.882812 25.320312 C 6.117188 25.539062 6.667969 25.734375 7.535156 25.917969 C 9.6875 26.382812 11.214844 26.855469 12.15625 27.339844 C 13.097656 27.828125 13.773438 28.421875 14.183594 29.121094 C 14.605469 29.847656 14.820312 30.675781 14.820312 31.503906 C 14.820312 32.511719 14.519531 33.503906 13.96875 34.351562 C 13.382812 35.234375 12.566406 35.917969 11.605469 36.332031 C 10.589844 36.785156 9.316406 37.015625 7.785156 37.015625 C 5.085938 37.015625 3.21875 36.496094 2.171875 35.433594 C 1.125 34.351562 0.535156 33.019531 0.394531 31.394531 Z M 0.394531 31.394531 "/>
<path style=" stroke:none;fill-rule:nonzero;fill:rgb(0%,0%,0%);fill-opacity:1;" d="M 24.023438 30.132812 L 28.324219 31.449219 C 28.09375 32.546875 27.613281 33.59375 26.957031 34.515625 C 26.351562 35.324219 25.550781 35.953125 24.644531 36.367188 C 23.722656 36.785156 22.550781 37 21.128906 37 C 19.40625 37 17.980469 36.746094 16.898438 36.242188 C 15.796875 35.738281 14.859375 34.835938 14.058594 33.558594 C 13.257812 32.277344 12.867188 30.636719 12.867188 28.636719 C 12.867188 25.96875 13.558594 23.914062 14.960938 22.492188 C 16.367188 21.066406 18.339844 20.347656 20.898438 20.347656 C 22.90625 20.347656 24.46875 20.761719 25.625 21.574219 C 26.761719 22.402344 27.613281 23.664062 28.179688 25.359375 L 23.84375 26.332031 C 23.738281 25.953125 23.582031 25.574219 23.367188 25.25 C 23.101562 24.871094 22.761719 24.582031 22.351562 24.367188 C 21.945312 24.152344 21.484375 24.058594 21.019531 24.058594 C 19.902344 24.058594 19.050781 24.511719 18.460938 25.429688 C 18.019531 26.097656 17.789062 27.160156 17.789062 28.601562 C 17.789062 30.386719 18.054688 31.613281 18.585938 32.277344 C 19.121094 32.945312 19.867188 33.269531 20.84375 33.269531 C 21.785156 33.269531 22.496094 33 22.976562 32.476562 C 23.457031 31.917969 23.808594 31.140625 24.023438 30.132812 Z M 34.0625 20.617188 L 38.964844 20.617188 L 38.964844 26.257812 L 44.328125 26.257812 L 44.328125 20.617188 L 49.269531 20.617188 L 49.269531 36.730469 L 44.328125 36.730469 L 44.328125 30.203125 L 38.964844 30.203125 L 38.964844 36.730469 L 34.0625 36.730469 Z M 34.0625 20.617188 "/>
<path style=" stroke:none;fill-rule:nonzero;fill:rgb(0%,0%,0%);fill-opacity:1;" d="M 48.59375 28.671875 C 48.59375 26.042969 49.324219 23.988281 50.761719 22.527344 C 52.199219 21.066406 54.226562 20.328125 56.800781 20.328125 C 59.449219 20.328125 61.472656 21.050781 62.914062 22.492188 C 64.351562 23.933594 65.0625 25.953125 65.0625 28.546875 C 65.0625 30.441406 64.742188 31.972656 64.121094 33.179688 C 63.515625 34.371094 62.578125 35.34375 61.421875 35.992188 C 60.230469 36.65625 58.753906 37 56.996094 37 C 55.203125 37 53.726562 36.710938 52.554688 36.136719 C 51.347656 35.519531 50.351562 34.566406 49.695312 33.394531 C 48.96875 32.132812 48.59375 30.566406 48.59375 28.671875 Z M 53.5 28.691406 C 53.5 30.3125 53.800781 31.484375 54.386719 32.207031 C 54.972656 32.910156 55.789062 33.269531 56.820312 33.269531 C 57.867188 33.269531 58.6875 32.925781 59.269531 32.222656 C 59.859375 31.523438 60.140625 30.277344 60.140625 28.476562 C 60.140625 26.960938 59.839844 25.84375 59.234375 25.160156 C 58.628906 24.457031 57.816406 24.113281 56.785156 24.113281 C 55.878906 24.078125 55.007812 24.472656 54.402344 25.175781 C 53.800781 25.878906 53.5 27.050781 53.5 28.691406 Z M 70.089844 28.671875 C 70.089844 26.042969 70.820312 23.988281 72.257812 22.527344 C 73.695312 21.066406 75.722656 20.328125 78.296875 20.328125 C 80.945312 20.328125 82.988281 21.050781 84.410156 22.492188 C 85.832031 23.933594 86.558594 25.953125 86.558594 28.546875 C 86.558594 30.441406 86.242188 31.972656 85.617188 33.179688 C 85.011719 34.371094 84.074219 35.34375 82.917969 35.992188 C 81.726562 36.65625 80.253906 37 78.496094 37 C 76.699219 37 75.222656 36.710938 74.050781 36.136719 C 72.84375 35.519531 71.847656 34.566406 71.191406 33.394531 C 70.464844 32.132812 70.089844 30.566406 70.089844 28.671875 Z M 74.996094 28.691406 C 74.996094 30.3125 75.296875 31.484375 75.882812 32.207031 C 76.46875 32.910156 77.285156 33.269531 78.316406 33.269531 C 79.363281 33.269531 80.183594 32.925781 80.765625 32.222656 C 81.355469 31.523438 81.636719 30.277344 81.636719 28.476562 C 81.636719 26.960938 81.335938 25.84375 80.734375 25.160156 C 80.128906 24.457031 79.3125 24.113281 78.28125 24.113281 C 77.375 24.078125 76.488281 24.472656 75.898438 25.175781 C 75.296875 25.878906 74.996094 27.050781 74.996094 28.691406 Z M 74.996094 28.691406 "/>
<path style=" stroke:none;fill-rule:nonzero;fill:rgb(0%,0%,0%);fill-opacity:1;" d="M 86.042969 20.617188 L 90.949219 20.617188 L 90.949219 32.765625 L 98.605469 32.765625 L 98.605469 36.730469 L 86.027344 36.730469 L 86.027344 20.617188 Z M 86.042969 20.617188 "/>
<path style=" stroke:none;fill-rule:nonzero;fill:rgb(100%,100%,100%);fill-opacity:1;" d="M 84.039062 5.398438 C 80.980469 1.28125 74.5 1.003906 69.5625 4.777344 C 64.625 8.550781 63.105469 14.945312 66.164062 19.066406 C 69.222656 23.183594 75.703125 23.460938 80.640625 19.6875 C 85.578125 15.914062 87.097656 9.515625 84.039062 5.398438 Z M 84.039062 5.398438 "/>
<g clip-path="url(#clip1)" clip-rule="nonzero">
<g clip-path="url(#clip2)" clip-rule="nonzero">
<path style=" stroke:none;fill-rule:nonzero;fill:rgb(100%,100%,100%);fill-opacity:1;" d="M 53.574219 10.191406 L 79.082031 -9.3125 L 96.734375 14.449219 L 71.226562 33.953125 Z M 53.574219 10.191406 "/>
<g clip-path="url(#clip3)" clip-rule="nonzero">
<path style=" stroke:none;fill-rule:nonzero;fill:rgb(100%,100%,100%);fill-opacity:1;" d="M 84.039062 5.398438 C 80.980469 1.28125 74.5 1.003906 69.5625 4.777344 C 64.625 8.550781 63.105469 14.945312 66.164062 19.066406 C 69.222656 23.183594 75.703125 23.460938 80.640625 19.6875 C 85.578125 15.914062 87.097656 9.515625 84.039062 5.398438 Z M 84.039062 5.398438 "/>
<g clip-path="url(#clip4)" clip-rule="nonzero">
<path style=" stroke:none;fill-rule:nonzero;fill:rgb(100%,100%,100%);fill-opacity:1;" d="M 60.675781 11.777344 L 78.539062 -1.878906 L 89.628906 13.046875 L 71.765625 26.703125 Z M 60.675781 11.777344 "/>
<g clip-path="url(#clip5)" clip-rule="nonzero">
<path style="fill-rule:nonzero;fill:rgb(100%,100%,100%);fill-opacity:1;stroke-width:4;stroke-linecap:butt;stroke-linejoin:miter;stroke:rgb(0%,0%,0%);stroke-opacity:1;stroke-miterlimit:10;" d="M 483.497932 67.895928 C 483.497386 39.290276 455.292 16.108231 420.495751 16.103283 C 385.699502 16.098336 357.515259 39.286826 357.502761 67.909787 C 357.503307 96.515439 385.708694 119.697484 420.504942 119.702432 C 455.301191 119.707379 483.498478 96.501579 483.497932 67.895928 Z M 483.497932 67.895928 " transform="matrix(0.141882,-0.108464,0.10692,0.143931,8.179842,48.068342)"/>
</g>
</g>
</g>
</g>
</g>
<g clip-path="url(#clip6)" clip-rule="nonzero">
<g clip-path="url(#clip7)" clip-rule="nonzero">
<g clip-path="url(#clip8)" clip-rule="nonzero">
<g clip-path="url(#clip9)" clip-rule="nonzero">
<g clip-path="url(#clip10)" clip-rule="nonzero">
<path style="fill:none;stroke-width:4;stroke-linecap:butt;stroke-linejoin:miter;stroke:rgb(0%,0%,0%);stroke-opacity:1;stroke-miterlimit:10;" d="M 357.794302 17.000764 L 483.697661 16.996977 L 483.709135 120.705071 L 357.805776 120.708858 Z M 357.794302 17.000764 " transform="matrix(0.141884,-0.108462,0.106918,0.143933,8.092775,48.137385)"/>
</g>
</g>
</g>
</g>
</g>
<g clip-path="url(#clip11)" clip-rule="nonzero">
<g clip-path="url(#clip12)" clip-rule="nonzero">
<g clip-path="url(#clip13)" clip-rule="nonzero">
<g clip-path="url(#clip14)" clip-rule="nonzero">
<path style="fill:none;stroke-width:4;stroke-linecap:butt;stroke-linejoin:miter;stroke:rgb(0%,0%,0%);stroke-opacity:1;stroke-miterlimit:10;" d="M 483.497932 67.895928 C 483.497386 39.290276 455.292 16.108231 420.495751 16.103283 C 385.699502 16.098336 357.515259 39.286826 357.502761 67.909787 C 357.503307 96.515439 385.708694 119.697484 420.504942 119.702432 C 455.301191 119.707379 483.498478 96.501579 483.497932 67.895928 Z M 483.497932 67.895928 " transform="matrix(0.141882,-0.108464,0.10692,0.143931,8.179842,48.068342)"/>
<path style=" stroke:none;fill-rule:nonzero;fill:rgb(100%,100%,100%);fill-opacity:1;" d="M 60.675781 11.777344 L 78.539062 -1.878906 L 89.628906 13.046875 L 71.765625 26.703125 Z M 60.675781 11.777344 "/>
<g clip-path="url(#clip15)" clip-rule="nonzero">
<path style="fill-rule:nonzero;fill:rgb(100%,100%,100%);fill-opacity:1;stroke-width:4;stroke-linecap:butt;stroke-linejoin:miter;stroke:rgb(0%,0%,0%);stroke-opacity:1;stroke-miterlimit:10;" d="M 483.497932 67.895928 C 483.497386 39.290276 455.292 16.108231 420.495751 16.103283 C 385.699502 16.098336 357.515259 39.286826 357.502761 67.909787 C 357.503307 96.515439 385.708694 119.697484 420.504942 119.702432 C 455.301191 119.707379 483.498478 96.501579 483.497932 67.895928 Z M 483.497932 67.895928 " transform="matrix(0.141882,-0.108464,0.10692,0.143931,8.179842,48.068342)"/>
</g>
</g>
</g>
</g>
</g>
<g clip-path="url(#clip16)" clip-rule="nonzero">
<g clip-path="url(#clip17)" clip-rule="nonzero">
<g clip-path="url(#clip18)" clip-rule="nonzero">
<g clip-path="url(#clip19)" clip-rule="nonzero">
<g clip-path="url(#clip20)" clip-rule="nonzero">
<path style="fill:none;stroke-width:4;stroke-linecap:butt;stroke-linejoin:miter;stroke:rgb(0%,0%,0%);stroke-opacity:1;stroke-miterlimit:10;" d="M 357.794302 17.000764 L 483.697661 16.996977 L 483.709135 120.705071 L 357.805776 120.708858 Z M 357.794302 17.000764 " transform="matrix(0.141884,-0.108462,0.106918,0.143933,8.092775,48.137385)"/>
</g>
</g>
</g>
</g>
</g>
<g clip-path="url(#clip21)" clip-rule="nonzero">
<g clip-path="url(#clip22)" clip-rule="nonzero">
<g clip-path="url(#clip23)" clip-rule="nonzero">
<g clip-path="url(#clip24)" clip-rule="nonzero">
<path style="fill:none;stroke-width:4;stroke-linecap:butt;stroke-linejoin:miter;stroke:rgb(0%,0%,0%);stroke-opacity:1;stroke-miterlimit:10;" d="M 330.914727 -14.205616 L 510.696683 -14.206186 L 510.700451 150.887428 L 330.90545 150.905307 Z M 330.914727 -14.205616 " transform="matrix(0.141882,-0.108464,0.10692,0.143931,8.142148,48.124555)"/>
</g>
</g>
</g>
</g>
<g clip-path="url(#clip25)" clip-rule="nonzero">
<g clip-path="url(#clip26)" clip-rule="nonzero">
<g clip-path="url(#clip27)" clip-rule="nonzero">
<path style="fill:none;stroke-width:4;stroke-linecap:butt;stroke-linejoin:miter;stroke:rgb(0%,0%,0%);stroke-opacity:1;stroke-miterlimit:10;" d="M 483.497932 67.895928 C 483.497386 39.290276 455.292 16.108231 420.495751 16.103283 C 385.699502 16.098336 357.515259 39.286826 357.502761 67.909787 C 357.503307 96.515439 385.708694 119.697484 420.504942 119.702432 C 455.301191 119.707379 483.498478 96.501579 483.497932 67.895928 Z M 483.497932 67.895928 " transform="matrix(0.141882,-0.108464,0.10692,0.143931,8.179842,48.068342)"/>
</g>
</g>
</g>
<g clip-path="url(#clip28)" clip-rule="nonzero">
<g clip-path="url(#clip29)" clip-rule="nonzero">
<g clip-path="url(#clip30)" clip-rule="nonzero">
<path style=" stroke:none;fill-rule:nonzero;fill:rgb(0%,0%,0%);fill-opacity:1;" d="M 70.109375 11.046875 L 71.882812 9.789062 L 74.070312 12.941406 C 74.441406 13.445312 74.726562 13.984375 74.941406 14.582031 C 75.0625 15.03125 75.03125 15.519531 74.851562 15.949219 C 74.621094 16.492188 74.246094 16.941406 73.75 17.265625 C 73.164062 17.679688 72.667969 17.914062 72.238281 17.988281 C 71.832031 18.058594 71.40625 17.988281 71.015625 17.804688 C 70.589844 17.589844 70.214844 17.285156 69.933594 16.886719 L 71.460938 15.445312 C 71.582031 15.644531 71.742188 15.824219 71.921875 15.96875 C 72.042969 16.058594 72.1875 16.113281 72.347656 16.113281 C 72.472656 16.113281 72.597656 16.058594 72.683594 15.984375 C 72.863281 15.875 72.988281 15.664062 72.96875 15.445312 C 72.914062 15.140625 72.792969 14.832031 72.597656 14.597656 Z M 75.4375 13.046875 L 77.054688 11.75 C 77.230469 11.96875 77.464844 12.128906 77.710938 12.21875 C 78.066406 12.328125 78.441406 12.257812 78.742188 12.019531 C 78.957031 11.875 79.132812 11.679688 79.203125 11.425781 C 79.3125 11.101562 79.132812 10.742188 78.8125 10.632812 C 78.757812 10.617188 78.707031 10.597656 78.652344 10.597656 C 78.441406 10.578125 78.066406 10.667969 77.515625 10.902344 C 76.609375 11.28125 75.898438 11.425781 75.367188 11.371094 C 74.851562 11.320312 74.371094 11.046875 74.085938 10.597656 C 73.875 10.289062 73.769531 9.929688 73.75 9.570312 C 73.75 9.15625 73.855469 8.742188 74.085938 8.398438 C 74.425781 7.910156 74.835938 7.496094 75.332031 7.171875 C 76.078125 6.652344 76.734375 6.398438 77.304688 6.398438 C 77.871094 6.398438 78.40625 6.667969 78.902344 7.226562 L 77.304688 8.503906 C 76.984375 8.089844 76.378906 8.003906 75.972656 8.328125 L 75.917969 8.378906 C 75.738281 8.488281 75.617188 8.648438 75.542969 8.851562 C 75.492188 8.992188 75.527344 9.15625 75.617188 9.28125 C 75.6875 9.371094 75.792969 9.441406 75.917969 9.441406 C 76.058594 9.460938 76.308594 9.390625 76.664062 9.226562 C 77.550781 8.851562 78.226562 8.632812 78.691406 8.5625 C 79.078125 8.488281 79.488281 8.523438 79.863281 8.6875 C 80.199219 8.832031 80.484375 9.082031 80.679688 9.390625 C 80.925781 9.75 81.070312 10.183594 81.085938 10.632812 C 81.105469 11.101562 80.980469 11.554688 80.734375 11.949219 C 80.414062 12.433594 80.003906 12.847656 79.523438 13.175781 C 78.546875 13.859375 77.746094 14.148438 77.105469 14.039062 C 76.414062 13.929688 75.847656 13.570312 75.4375 13.046875 Z M 75.4375 13.046875 "/>
</g>
</g>
</g>
</g>
</svg>
